P3
16
16
255
133 136 138	133 136 138	133 136 138	133 136 138	129 135 139	129 135 139	129 135 139	129 135 139	241 241 242	241 241 242	241 241 242	241 241 242	215 215 216	215 215 216	215 215 216	215 215 216
133 136 138	133 136 138	133 136 138	133 136 138	129 135 139	129 135 139	129 135 139	129 135 139	241 241 242	241 241 242	241 241 242	241 241 242	215 215 216	215 215 216	215 215 216	215 215 216
133 136 138	133 136 138	133 136 138	133 136 138	129 135 139	129 135 139	129 135 139	129 135 139	241 241 242	241 241 242	241 241 242	241 241 242	215 215 216	215 215 216	215 215 216	215 215 216
133 136 138	133 136 138	133 136 138	133 136 138	129 135 139	129 135 139	129 135 139	129 135 139	241 241 242	241 241 242	241 241 242	241 241 242	215 215 216	215 215 216	215 215 216	215 215 216
143 174 201	143 174 201	143 174 201	143 174 201	145 166 178	145 166 178	145 166 178	145 166 178	162 161 164	162 161 164	162 161 164	162 161 164	165 167 168	165 167 168	165 167 168	165 167 168
143 174 201	143 174 201	143 174 201	143 174 201	145 166 178	145 166 178	145 166 178	145 166 178	162 161 164	162 161 164	162 161 164	162 161 164	165 167 168	165 167 168	165 167 168	165 167 168
143 174 201	143 174 201	143 174 201	143 174 201	145 166 178	145 166 178	145 166 178	145 166 178	162 161 164	162 161 164	162 161 164	162 161 164	165 167 168	165 167 168	165 167 168	165 167 168
143 174 201	143 174 201	143 174 201	143 174 201	145 166 178	145 166 178	145 166 178	145 166 178	162 161 164	162 161 164	162 161 164	162 161 164	165 167 168	165 167 168	165 167 168	165 167 168
157 172 193	157 172 193	157 172 193	157 172 193	115 146 182	115 146 182	115 146 182	115 146 182	191 189 195	191 189 195	191 189 195	191 189 195	188 189 195	188 189 195	188 189 195	188 189 195
157 172 193	157 172 193	157 172 193	157 172 193	115 146 182	115 146 182	115 146 182	115 146 182	191 189 195	191 189 195	191 189 195	191 189 195	188 189 195	188 189 195	188 189 195	188 189 195
157 172 193	157 172 193	157 172 193	157 172 193	115 146 182	115 146 182	115 146 182	115 146 182	191 189 195	191 189 195	191 189 195	191 189 195	188 189 195	188 189 195	188 189 195	188 189 195
157 172 193	157 172 193	157 172 193	157 172 193	115 146 182	115 146 182	115 146 182	115 146 182	191 189 195	191 189 195	191 189 195	191 189 195	188 189 195	188 189 195	188 189 195	188 189 195
146 130 134	146 130 134	146 130 134	146 130 134	136 124 126	136 124 126	136 124 126	136 124 126	134 124 128	134 124 128	134 124 128	134 124 128	125 118 124	125 118 124	125 118 124	125 118 124
146 130 134	146 130 134	146 130 134	146 130 134	136 124 126	136 124 126	136 124 126	136 124 126	134 124 128	134 124 128	134 124 128	134 124 128	125 118 124	125 118 124	125 118 124	125 118 124
146 130 134	146 130 134	146 130 134	146 130 134	136 124 126	136 124 126	136 124 126	136 124 126	134 124 128	134 124 128	134 124 128	134 124 128	125 118 124	125 118 124	125 118 124	125 118 124
146 130 134	146 130 134	146 130 134	146 130 134	136 124 126	136 124 126	136 124 126	136 124 126	134 124 128	134 124 128	134 124 128	134 124 128	125 118 124	125 118 124	125 118 124	125 118 124
